<svg xmlns="http://www.w3.org/2000/svg" baseProfile="tiny" viewBox="0 0 831.2 205.95" width="160" height="40"><path fill="#85888C" d="M364.06 100.67V71.73H238.91v28.94h45.63v102.8h33.89v-102.8h45.63zm295.01 99.02l-2.61-28.42c-7.04 3.65-16.69 5.47-25.55 5.47-22.16 0-30.76-15.12-30.76-37.28 0-24.51 10.69-40.15 31.81-40.15 8.34 0 16.43 2.08 23.47 4.69l3.39-28.94c-8.34-2.35-17.73-3.65-26.59-3.65-45.89 0-67.01 31.03-67.01 71.44 0 44.06 22.42 62.84 58.4 62.84 13.81-.01 26.58-2.62 35.45-6z"/><path fill-rule="evenodd" fill="#85888C" d="M515.19 128.77c0-32.07-16.69-57.88-54.49-57.88-38.85 0-60.75 29.2-60.75 68.83 0 45.63 22.95 66.23 64.14 66.23 16.16 0 32.59-2.87 46.41-8.35l-3.13-25.81c-11.21 5.21-25.03 8.08-37.81 8.08-23.99 0-35.98-11.73-35.72-35.98h80.3c.79-5.47 1.05-10.69 1.05-15.12zm-33.11-7.56h-47.71c1.82-15.64 11.47-25.81 25.29-25.81 14.07 0 22.94 9.64 22.42 25.81zm349.12 14.86c0-44.59-23.73-64.92-60.49-64.92-39.37 0-66.23 29.2-66.23 69.62 0 46.15 23.73 65.18 60.49 65.18 38.85 0 66.23-29.21 66.23-69.88zm-34.42 1.82c0 26.33-12.52 39.63-28.94 39.63-19.29 0-28.94-13.56-28.94-40.15 0-26.59 14.6-38.06 29.46-38.06 19.56 0 28.42 13.56 28.42 38.58z"/><path fill="#85888C" d="M189.6 73.49c-19.29-.52-39.37.26-55.79 2.35V96.7c7.56.52 16.42 1.56 22.68 2.61v104.03h33.11V73.49z"/><path fill="#B61918" d="M193.78 20.08C193.78 8.87 184.39 0 172.92 0c-11.21 0-20.6 9.13-20.6 20.08 0 11.21 9.39 20.34 20.6 20.34 11.47-.01 20.86-9.13 20.86-20.34z"/><path fill="#85888C" d="M87.6 163.19c0-41.98-53.19-32.59-53.19-53.71 0-8.08 6.26-13.3 19.29-13.3 8.08 0 16.69 1.3 23.99 3.39l1.04-26.33c-7.82-1.3-16.17-2.35-23.73-2.35-36.49 0-55 18.77-55 41.45 0 44.06 52.41 31.03 52.41 53.97 0 8.6-8.34 13.82-21.12 13.82-9.91 0-19.81-1.82-27.9-3.91l-.78 27.38c8.34 1.3 17.73 2.35 27.12 2.35 35.45 0 57.87-17.21 57.87-42.76z"/></svg>